<svg width="48" height="48" viewBox="0 0 48 48" fill="none" xmlns="http://www.w3.org/2000/svg">
<path d="M24 0C37.2548 0 48 10.7452 48 24C48 37.2548 37.2548 48 24 48C10.7452 48 0 37.2548 0 24C0 10.7452 10.7452 0 24 0ZM19.0645 15.752C18.8254 15.7714 18.6066 15.8895 18.4639 16.0762C18.3002 16.2902 18.2998 16.6683 18.2998 17.4248V30.584C18.2998 31.3336 18.2996 31.7093 18.4619 31.9229C18.6034 32.1089 18.8209 32.2271 19.0586 32.248C19.3313 32.272 19.6628 32.0783 20.3252 31.6904L31.4463 25.1787C32.0642 24.8169 32.3733 24.6356 32.4795 24.4014C32.572 24.197 32.5731 23.9649 32.4824 23.7598C32.3785 23.5246 32.0715 23.3409 31.457 22.9736L20.3359 16.3252C19.6712 15.9279 19.3385 15.7298 19.0645 15.752Z" fill="black"/>
</svg>
