<svg width="26" height="26" viewBox="0 0 26 26" fill="none" xmlns="http://www.w3.org/2000/svg">
<rect x="3.90332" y="3.724" width="18.6988" height="3.29374" rx="0.764706" transform="rotate(6.15449 3.90332 3.724)" fill="white"/>
<path d="M12.8561 5.83161C12.55 6.10837 11.5763 5.58725 10.6813 4.66766C9.78628 3.74806 9.0288 3.03195 9.61499 2.50147C10.2012 1.97098 10.8948 2.74582 11.7898 3.66542C12.6848 4.58501 13.1622 5.55485 12.8561 5.83161Z" stroke="white" stroke-width="1.52941" stroke-linejoin="round"/>
<path d="M12.7311 5.81789C12.9712 6.15355 14.0336 5.85199 15.1041 5.14433C16.1745 4.43668 17.0673 3.89852 16.6077 3.25526C16.148 2.612 15.3052 3.22117 14.2347 3.92882C13.1642 4.63647 12.491 5.48224 12.7311 5.81789Z" stroke="white" stroke-width="1.52941" stroke-linejoin="round"/>
<path d="M11.4708 21.8825H4.29407C3.87183 21.8825 3.52954 21.5401 3.52942 21.1179V11.9411C3.52945 11.5188 3.87178 11.1765 4.29407 11.1765H11.4708V21.8825ZM21.1173 11.1765C21.5396 11.1765 21.8819 11.5188 21.882 11.9411V21.1179C21.8818 21.5401 21.5396 21.8825 21.1173 21.8825H14.9122V11.1765H21.1173Z" fill="white"/>
</svg>
