<svg width="26" height="26" viewBox="0 0 26 26" fill="none" xmlns="http://www.w3.org/2000/svg">
<path fill-rule="evenodd" clip-rule="evenodd" d="M18.9183 3.36927C19.9637 3.16823 20.9335 3.96929 20.9335 5.03386V17.3361C20.9335 17.7796 20.574 18.1391 20.1306 18.1391C19.6871 18.1391 19.3276 17.7796 19.3276 17.3361V5.03386C19.3276 4.97783 19.2766 4.93567 19.2216 4.94625L9.40786 6.83351C9.36585 6.84159 9.33549 6.87834 9.33549 6.92112V18.6744C9.33549 19.1178 8.976 19.4773 8.53255 19.4773C8.0891 19.4773 7.72961 19.1178 7.72961 18.6744V6.92112C7.72961 6.10837 8.30647 5.41001 9.10459 5.25652L18.9183 3.36927Z" fill="white"/>
<path d="M8.66843 17.6717C9.2882 18.8767 8.54742 20.4929 7.01385 21.2817C5.48028 22.0705 3.73466 21.7331 3.1149 20.5282C2.49513 19.3232 3.23591 17.707 4.76948 16.9182C6.30304 16.1294 8.04867 16.4668 8.66843 17.6717Z" fill="white"/>
<path fill-rule="evenodd" clip-rule="evenodd" d="M4.97351 17.3149C3.56458 18.0396 3.04759 19.4221 3.51158 20.3241C3.97556 21.2262 5.40088 21.6097 6.80982 20.885C8.21875 20.1603 8.73574 18.7778 8.27175 17.8757C7.80777 16.9737 6.38245 16.5902 4.97351 17.3149ZM2.71821 20.7322C1.94266 19.2244 2.90724 17.3744 4.56544 16.5215C6.22364 15.6686 8.28957 15.9599 9.06511 17.4677C9.84066 18.9755 8.87609 20.8255 7.21789 21.6784C5.55968 22.5313 3.49376 22.24 2.71821 20.7322Z" fill="white"/>
<path d="M20.2668 16.6168C20.8866 17.8218 20.1458 19.438 18.6123 20.2268C17.0787 21.0156 15.3331 20.6782 14.7133 19.4733C14.0935 18.2683 14.8343 16.6521 16.3679 15.8633C17.9015 15.0745 19.6471 15.4119 20.2668 16.6168Z" fill="white"/>
<path fill-rule="evenodd" clip-rule="evenodd" d="M16.5719 16.26C15.163 16.9847 14.646 18.3672 15.11 19.2693C15.574 20.1713 16.9993 20.5548 18.4082 19.8301C19.8172 19.1054 20.3341 17.7229 19.8702 16.8209C19.4062 15.9188 17.9809 15.5353 16.5719 16.26ZM14.3166 19.6773C13.5411 18.1695 14.5056 16.3195 16.1638 15.4666C17.8221 14.6137 19.888 14.905 20.6635 16.4128C21.4391 17.9206 20.4745 19.7706 18.8163 20.6235C17.1581 21.4764 15.0922 21.1851 14.3166 19.6773Z" fill="white"/>
<path d="M8.53255 10.1989L19.9877 7.9685L19.5416 4.39987L8.83574 6.63026L8.53255 10.1989Z" fill="white"/>
<path fill-rule="evenodd" clip-rule="evenodd" d="M20.0085 3.74662C20.191 3.87701 20.3106 4.07776 20.3384 4.30028L20.7844 7.8689C20.8368 8.28794 20.5557 8.67593 20.1412 8.75664L8.68601 10.987C8.43887 11.0351 8.18347 10.9646 7.99612 10.7963C7.80877 10.6281 7.71118 10.3818 7.73249 10.1309L8.03568 6.56229C8.06574 6.20859 8.32447 5.9166 8.67198 5.8442L19.3779 3.6138C19.5974 3.56807 19.8261 3.61622 20.0085 3.74662ZM9.58516 7.29431L9.42261 9.20757L19.0979 7.32372L18.8529 5.36354L9.58516 7.29431Z" fill="white"/>
</svg>
