<svg width="26" height="26" viewBox="0 0 26 26" fill="none" xmlns="http://www.w3.org/2000/svg">
<path fill-rule="evenodd" clip-rule="evenodd" d="M17.2203 18.5272C15.8471 19.468 14.1854 20.0184 12.3952 20.0184C7.67473 20.0184 3.84802 16.1917 3.84802 11.4712C3.84802 6.75071 7.67473 2.92401 12.3952 2.92401C17.1157 2.92401 20.9424 6.75071 20.9424 11.4712C20.9424 13.7341 20.063 15.7916 18.6273 17.3207L22.9817 21.6751C23.3425 22.0359 23.3425 22.621 22.9817 22.9818C22.6208 23.3427 22.0358 23.3427 21.6749 22.9818L17.2203 18.5272ZM19.0943 11.4712C19.0943 15.171 16.095 18.1703 12.3952 18.1703C8.69537 18.1703 5.69606 15.171 5.69606 11.4712C5.69606 7.77136 8.69537 4.77205 12.3952 4.77205C16.095 4.77205 19.0943 7.77136 19.0943 11.4712Z" fill="white" stroke="white" stroke-width="0.764706"/>
</svg>
