<svg width="26" height="26" viewBox="0 0 26 26" fill="none" xmlns="http://www.w3.org/2000/svg">
<path d="M11.8137 2.89216C11.8137 2.39943 12.2132 2 12.7059 2C13.1986 2 13.598 2.39943 13.598 2.89216V3.78431C13.598 4.27704 13.1986 4.67647 12.7059 4.67647C12.2132 4.67647 11.8137 4.27704 11.8137 3.78431V2.89216Z" fill="white"/>
<path d="M6.46079 15.3824V10.9216C6.46079 7.4725 9.25682 4.67647 12.7059 4.67647C16.155 4.67647 18.951 7.4725 18.951 10.9216V15.3824L20.7353 18.951H4.67648L6.46079 15.3824Z" fill="white"/>
<path fill-rule="evenodd" clip-rule="evenodd" d="M5.65785 10.9216C5.65785 7.02904 8.81336 3.87353 12.7059 3.87353C16.5984 3.87353 19.7539 7.02904 19.7539 10.9216V15.1928L21.4535 18.5919C21.5779 18.8408 21.5646 19.1364 21.4183 19.3731C21.272 19.6098 21.0136 19.7539 20.7353 19.7539H4.67648C4.3982 19.7539 4.13976 19.6098 3.99345 19.3731C3.84715 19.1364 3.83385 18.8408 3.9583 18.5919L5.65785 15.1928V10.9216ZM12.7059 5.47941C9.70027 5.47941 7.26373 7.91595 7.26373 10.9216V15.3824C7.26373 15.507 7.23471 15.6299 7.17896 15.7414L5.97566 18.148H19.4361L18.2328 15.7414C18.1771 15.6299 18.148 15.507 18.148 15.3824V10.9216C18.148 7.91595 15.7115 5.47941 12.7059 5.47941Z" fill="white"/>
<path fill-rule="evenodd" clip-rule="evenodd" d="M16.4084 18.5941H9.00353V19.3971C9.00353 19.5179 9.00992 19.6369 9.02238 19.7539H16.3896C16.402 19.6369 16.4084 19.5179 16.4084 19.3971V18.5941ZM15.943 21.0922H9.46893C10.1117 22.1727 11.3469 22.8765 12.706 22.8765C14.065 22.8765 15.3002 22.1727 15.943 21.0922Z" fill="white"/>
</svg>
