<svg width="26" height="26" viewBox="0 0 26 26" fill="none" xmlns="http://www.w3.org/2000/svg">
<g clip-path="url(#clip0_9_282)">
<path d="M7.87704 2.98135C4.06655 2.9813 1.35962 6.85692 2.26699 10.673C2.70018 12.4948 3.93838 14.4262 5.58969 16.2813C7.25371 18.1506 9.39528 20.007 11.7329 21.6765C12.315 22.0922 13.0968 22.0922 13.6789 21.6765C16.0165 20.007 18.1581 18.1506 19.8221 16.2813C21.4734 14.4262 22.7116 12.4948 23.1448 10.673C24.0522 6.85692 21.3452 2.9813 17.5348 2.98135C15.2821 2.98139 13.6428 4.23732 12.7059 5.33288C11.769 4.23732 10.1297 2.98139 7.87704 2.98135Z" fill="white"/>
</g>
<defs>
<clipPath id="clip0_9_282">
<rect width="21.4118" height="21.4118" fill="white" transform="translate(2 2)"/>
</clipPath>
</defs>
</svg>
