<svg width="26" height="26" viewBox="0 0 26 26" fill="none" xmlns="http://www.w3.org/2000/svg">
<path d="M5.92542 20.5383V4.8848C5.92542 3.98467 5.92542 3.5346 6.12013 3.27992C6.28988 3.0579 6.55013 2.91736 6.83444 2.89417C7.16058 2.86758 7.55614 3.10403 8.34726 3.57693L21.5764 11.4849C22.3073 11.9218 22.6728 12.1402 22.7964 12.4199C22.9043 12.6641 22.903 12.9407 22.7928 13.1839C22.6665 13.4624 22.299 13.6776 21.5639 14.108L21.5639 14.108L8.33475 21.8535C7.54658 22.315 7.15249 22.5458 6.82805 22.5172C6.54517 22.4924 6.28686 22.3514 6.1185 22.1299C5.92542 21.8759 5.92542 21.43 5.92542 20.5383Z" fill="white"/>
</svg>
