<svg width="26" height="26" viewBox="0 0 26 26" fill="none" xmlns="http://www.w3.org/2000/svg">
<path fill-rule="evenodd" clip-rule="evenodd" d="M8.10043 5.52961H4.00008V4H8.8122C9.15848 4 9.49057 4.13757 9.7354 4.38244C9.9802 4.62726 10.1177 4.9593 10.1177 5.30552V10.1184H8.58831V7.05921C7.21753 8.08785 6.23196 9.54718 5.78971 11.2031C5.34746 12.859 5.47418 14.6154 6.14952 16.1907C6.82487 17.7659 8.0097 19.0686 9.51393 19.8898C11.0182 20.711 12.7546 21.003 14.4446 20.7191C16.1347 20.4351 17.6804 19.5917 18.8337 18.324C19.9871 17.0563 20.6813 15.4379 20.8049 13.7284C20.9285 12.0189 20.4744 10.3175 19.5154 8.89698C18.6991 7.68792 17.5574 6.74209 16.2294 6.16408C15.843 5.99587 15.6194 5.57035 15.7465 5.16852C15.8745 4.76438 16.3081 4.53818 16.6995 4.70093C18.3716 5.39623 19.8065 6.57359 20.816 8.0909C21.968 9.82219 22.4979 11.8934 22.3189 13.9653C22.1399 16.0371 21.2627 17.9868 19.8309 19.4948C18.3991 21.0028 16.4977 21.9798 14.4381 22.2658C12.3786 22.5517 10.283 22.1296 8.49465 21.0686C6.70632 20.0076 5.3313 18.3706 4.59485 16.4258C3.8584 14.4811 3.80417 12.3438 4.44107 10.3642C5.07796 8.38455 6.3682 6.67994 8.10043 5.52961Z" fill="white" stroke="white" stroke-width="1.14706" stroke-linejoin="round"/>
</svg>
